<svg xmlns="http://www.w3.org/2000/svg" viewBox="0 0 800 240" width="100%" height="100%">
  <defs>
    <pattern id="dot-grid" width="16" height="16" patternUnits="userSpaceOnUse">
      <circle cx="1" cy="1" r="1" fill="#1E293B" opacity="0.4" />
    </pattern>
    <linearGradient id="panel-grad" x1="0" y1="0" x2="0" y2="1">
      <stop offset="0%" stop-color="#030508"/>
      <stop offset="100%" stop-color="#070b12"/>
    </linearGradient>
    <style>
      .bg { fill: url(#panel-grad); stroke: #0f172a; stroke-width: 1.5; }
      .title-main { font-family: ui-monospace, SFMono-Regular, Menlo, Monaco, Consolas, monospace; font-size: 11px; font-weight: 700; fill: #00E5FF; letter-spacing: 2px; }
      .hud-text { font-family: ui-monospace, SFMono-Regular, Menlo, Monaco, Consolas, monospace; font-size: 8px; fill: #64748B; letter-spacing: 0.5px; }
      .hud-text-bright { fill: #00FF87; font-weight: bold; }
      .card-border { fill: #050810; stroke: #1e293b; stroke-width: 1; }
      .card-title { font-family: ui-monospace, SFMono-Regular, Menlo, Monaco, Consolas, monospace; font-size: 8px; font-weight: 700; fill: #64748B; letter-spacing: 0.5px; }
      .card-val { font-family: ui-monospace, SFMono-Regular, Menlo, Monaco, Consolas, monospace; font-size: 16px; font-weight: 800; fill: #F1F5F9; }
      .accent-cyan { fill: #00E5FF; }
      .accent-green { fill: #00FF87; }
      .accent-amber { fill: #FF9100; }
      .accent-purple { fill: #BD00FF; }
      .sec-title { font-family: ui-monospace, SFMono-Regular, Menlo, Monaco, Consolas, monospace; font-size: 9px; font-weight: 700; fill: #64748B; letter-spacing: 1px; }
      .lang-lbl { font-family: ui-monospace, SFMono-Regular, Menlo, Monaco, Consolas, monospace; font-size: 9px; font-weight: bold; fill: #94A3B8; }
      .lang-pct { font-family: ui-monospace, SFMono-Regular, Menlo, Monaco, Consolas, monospace; font-size: 9px; fill: #64748B; }
      .bar-track { fill: #080d16; stroke: #1e293b; stroke-width: 0.5; }
    </style>
  </defs>

  <!-- Container -->
  <rect width="800" height="240" rx="8" class="bg" />
  <rect width="800" height="240" rx="8" fill="url(#dot-grid)" />

  <!-- Top Header HUD -->
  <circle cx="25" cy="24" r="4" fill="#00FF87">
    <animate attributeName="opacity" values="0.3;1;0.3" dur="2s" repeatCount="indefinite" />
  </circle>
  <text x="38" y="27" class="title-main">GITHUB CORE TELEMETRY // SYSTEM_NODE_01</text>
  <text x="500" y="26" class="hud-text" text-anchor="start">
    PORT: <tspan class="hud-text-bright">9000</tspan> &#160;▪&#160; 
    DAEMON: <tspan class="hud-text-bright">ACTIVE</tspan> &#160;▪&#160; 
    STABLE: <tspan class="hud-text-bright">TRUE</tspan>
  </text>
  <text x="775" y="26" class="hud-text" text-anchor="end">SYNC_TIME: 2026-08-22 15:51:36 UTC</text>
  <line x1="20" y1="38" x2="780" y2="38" stroke="#0F172A" stroke-width="1.5" />

  <!-- LEFT PANEL: Core Metrics (X: 20 to 260) -->
  <!-- Card 1: Repositories -->
  <g transform="translate(20, 50)">
    <rect width="112" height="42" rx="4" class="card-border" style="stroke: #00E5FF; stroke-opacity: 0.5;" />
    <!-- Mini Folder Graphic -->
    <path d="M 12 14 L 18 14 L 20 17 L 26 17 L 26 28 L 12 28 Z" fill="none" stroke="#00E5FF" stroke-width="1" />
    <text x="34" y="18" class="card-title">SYS.REPOSITORIES</text>
    <text x="34" y="32" class="card-val">46</text>
    <rect x="98" y="10" width="4" height="4" class="accent-cyan" />
  </g>

  <!-- Card 2: Followers -->
  <g transform="translate(148, 50)">
    <rect width="112" height="42" rx="4" class="card-border" style="stroke: #FF9100; stroke-opacity: 0.5;" />
    <!-- Mini Connections Graphic -->
    <circle cx="16" cy="18" r="2.5" fill="none" stroke="#FF9100" stroke-width="1" />
    <circle cx="24" cy="24" r="2.5" fill="none" stroke="#FF9100" stroke-width="1" />
    <line x1="18.5" y1="20.5" x2="21.5" y2="21.5" stroke="#FF9100" stroke-width="1" />
    <text x="34" y="18" class="card-title">SYS.FOLLOWERS</text>
    <text x="34" y="32" class="card-val">10</text>
    <rect x="98" y="10" width="4" height="4" class="accent-amber" />
  </g>

  <!-- Card 3: Profile Stars -->
  <g transform="translate(20, 102)">
    <rect width="112" height="42" rx="4" class="card-border" style="stroke: #00FF87; stroke-opacity: 0.5;" />
    <!-- Mini Star Graphic -->
    <path d="M 18 12 L 20 16 L 24 16 L 21 19 L 22 23 L 18 21 L 14 23 L 15 19 L 12 16 L 16 16 Z" fill="none" stroke="#00FF87" stroke-width="1" />
    <text x="34" y="18" class="card-title">SYS.STARS_TOTAL</text>
    <text x="34" y="32" class="card-val">51</text>
    <rect x="98" y="10" width="4" height="4" class="accent-green" />
  </g>

  <!-- Card 4: Stored Forks -->
  <g transform="translate(148, 102)">
    <rect width="112" height="42" rx="4" class="card-border" style="stroke: #BD00FF; stroke-opacity: 0.5;" />
    <!-- Mini Fork Graphic -->
    <path d="M 14 13 L 14 17 A 4 4 0 0 0 18 21 L 18 26 M 22 13 L 22 17 A 4 4 0 0 1 18 21" fill="none" stroke="#BD00FF" stroke-width="1" />
    <circle cx="18" cy="27" r="1.5" fill="#BD00FF" />
    <text x="34" y="18" class="card-title">SYS.STORED_FORKS</text>
    <text x="34" y="32" class="card-val">7</text>
    <rect x="98" y="10" width="4" height="4" class="accent-purple" />
  </g>
  
  <!-- Environment indicators at the bottom left -->
  <g transform="translate(20, 160)">
    <rect width="240" height="60" rx="4" class="card-border" />
    <text x="15" y="18" class="hud-text">ENV_RUNTIME: <tspan class="hud-text-bright">NODE v20</tspan></text>
    <text x="15" y="33" class="hud-text">SYS_ENCRYPTION: <tspan class="hud-text-bright">TLS_1.3</tspan></text>
    <text x="15" y="48" class="hud-text">CORE_ACCOUNT: <tspan class="hud-text-bright">ACTIVE</tspan></text>
    
    <text x="130" y="18" class="hud-text">IP_SOCKET: <tspan class="hud-text-bright">RESOLVED</tspan></text>
    <text x="130" y="33" class="hud-text">FRAMEWORK: <tspan class="hud-text-bright">ENGINEERING</tspan></text>
    <text x="130" y="48" class="hud-text">SYS_STATUS: <tspan class="hud-text-bright" fill="#00FF87">SECURE</tspan></text>
  </g>

  <!-- MIDDLE PANEL: Active Streak Engine (X: 280 to 520) -->
  <g transform="translate(280, 50)">
    <text x="0" y="8" class="sec-title">ACTIVE STREAK ENGINE</text>
    <line x1="0" y1="14" x2="240" y2="14" stroke="#0F172A" stroke-width="1" />

    <!-- Dividers -->
    <line x1="80" y1="30" x2="80" y2="120" stroke="#0F172A" stroke-width="1" opacity="0.3" />
    <line x1="160" y1="30" x2="160" y2="120" stroke="#0F172A" stroke-width="1" opacity="0.3" />

    <!-- Left Column: Total Contributions -->
    <g transform="translate(0, 20)">
      <text x="40" y="45" font-family="ui-monospace, SFMono-Regular, Menlo, Monaco, Consolas, monospace" font-size="22" font-weight="800" fill="#00E5FF" text-anchor="middle">142</text>
      <text x="40" y="68" font-family="ui-monospace, SFMono-Regular, Menlo, Monaco, Consolas, monospace" font-size="8.5" font-weight="700" fill="#94A3B8" text-anchor="middle">Total Contributions</text>
      <text x="40" y="85" font-family="ui-monospace, SFMono-Regular, Menlo, Monaco, Consolas, monospace" font-size="7" fill="#64748B" text-anchor="middle">22 Apr 2025 - Present</text>
    </g>

    <!-- Middle Column: Current Streak -->
    <g transform="translate(0, 20)">
      <!-- Flame Icon -->
      <path d="M 120 18 C 122.2 22 124.4 23.8 124.4 27 A 4.4 4.4 0 0 1 115.6 27 C 115.6 23.8 117.8 22 120 18 Z" fill="#FF9100" />
      
      <!-- Background Arc Ring -->
      <path d="M 127.5 31.3 A 22 22 0 1 1 112.5 31.3" fill="none" stroke="#101726" stroke-width="2.5" stroke-linecap="round" />
      
      <!-- Active Progress Arc Ring -->
      <path d="M 127.5 31.3 A 22 22 0 1 1 112.5 31.3" fill="none" stroke="#00E5FF" stroke-width="2.5" stroke-linecap="round" stroke-dasharray="122.88" stroke-dashoffset="101.20" />
      
      <text x="120" y="57" font-family="ui-monospace, SFMono-Regular, Menlo, Monaco, Consolas, monospace" font-size="18" font-weight="800" fill="#00E5FF" text-anchor="middle">3</text>
      <text x="120" y="82" font-family="ui-monospace, SFMono-Regular, Menlo, Monaco, Consolas, monospace" font-size="8.5" font-weight="800" fill="#F1F5F9" text-anchor="middle">Current Streak</text>
      <text x="120" y="99" font-family="ui-monospace, SFMono-Regular, Menlo, Monaco, Consolas, monospace" font-size="7" fill="#64748B" text-anchor="middle">18 Aug - 20 Aug</text>
    </g>

    <!-- Right Column: Longest Streak -->
    <g transform="translate(0, 20)">
      <text x="200" y="45" font-family="ui-monospace, SFMono-Regular, Menlo, Monaco, Consolas, monospace" font-size="22" font-weight="800" fill="#00E5FF" text-anchor="middle">17</text>
      <text x="200" y="68" font-family="ui-monospace, SFMono-Regular, Menlo, Monaco, Consolas, monospace" font-size="8.5" font-weight="700" fill="#94A3B8" text-anchor="middle">Longest Streak</text>
      <text x="200" y="85" font-family="ui-monospace, SFMono-Regular, Menlo, Monaco, Consolas, monospace" font-size="7" fill="#64748B" text-anchor="middle">4 Jun - 20 Jun</text>
    </g>
  </g>

  <!-- RIGHT PANEL: Language Distribution (X: 540 to 780) -->
  <g transform="translate(540, 50)">
    <text x="0" y="8" class="sec-title">PRIMARY LANGUAGE DISTRIBUTION</text>
    <line x1="0" y1="14" x2="240" y2="14" stroke="#0F172A" stroke-width="1" />

    <!-- Languages loop -->
    <g transform="translate(0, 25)">
      <!-- Python Bar -->
      <g transform="translate(0, 0)">
        <text x="0" y="8" class="lang-lbl">Python</text>
        <text x="240" y="8" class="lang-pct" text-anchor="end">88.5%</text>
        <rect x="0" y="14" width="240" height="8" rx="2" class="bar-track" />
        <rect x="0" y="14" width="212" height="8" rx="2" fill="#3572A5">
          <animate attributeName="width" from="0" to="212" dur="1.2s" fill="freeze" />
        </rect>
      </g>
      <!-- TypeScript Bar -->
      <g transform="translate(0, 45)">
        <text x="0" y="8" class="lang-lbl">TypeScript</text>
        <text x="240" y="8" class="lang-pct" text-anchor="end">8.8%</text>
        <rect x="0" y="14" width="240" height="8" rx="2" class="bar-track" />
        <rect x="0" y="14" width="21" height="8" rx="2" fill="#3178c6">
          <animate attributeName="width" from="0" to="21" dur="1.2s" fill="freeze" />
        </rect>
      </g>
      <!-- JavaScript Bar -->
      <g transform="translate(0, 90)">
        <text x="0" y="8" class="lang-lbl">JavaScript</text>
        <text x="240" y="8" class="lang-pct" text-anchor="end">0.9%</text>
        <rect x="0" y="14" width="240" height="8" rx="2" class="bar-track" />
        <rect x="0" y="14" width="2" height="8" rx="2" fill="#f1e05a">
          <animate attributeName="width" from="0" to="2" dur="1.2s" fill="freeze" />
        </rect>
      </g>
    </g>
  </g>
</svg>